<svg id="Layer_1" data-name="Layer 1" xmlns="http://www.w3.org/2000/svg" viewBox="0 0 1920 1080"><defs><style>.cls-1{fill:#06a77d;}.cls-1,.cls-2{stroke:#fff;stroke-miterlimit:10;}.cls-2{fill:#fdca40;}</style></defs><path class="cls-1" d="M131.81,1125.13l107-114.31L86.34,975.28l-107,114.32ZM91,990.57l105.83,24.66,15.57,3.63-85.22,91L5.78,1081.56,16.7,1069.9Z"/><polygon class="cls-1" points="127.15 1109.85 122.53 1094.56 196.8 1015.23 212.37 1018.86 127.15 1109.85"/><polygon class="cls-1" points="5.78 1081.56 16.7 1069.9 122.53 1094.56 127.15 1109.85 5.78 1081.56"/><path class="cls-1" d="M86.34,975.28l152.5,35.54L193.36,861,40.85,825.44ZM61.05,844.35l121.39,28.28,36.2,119.28-15.56-3.63L97.25,963.62Z"/><path class="cls-1" d="M86.34,975.28,40.85,825.44l-107,114.31L-20.7,1089.6ZM34.57,852.39l36.2,119.27L-3.5,1051h0l-10.92,11.67L-50.64,943.38Z"/><polygon class="cls-1" points="203.09 988.28 171.52 884.3 182.44 872.63 218.64 991.91 203.09 988.28"/><polygon class="cls-1" points="65.69 859.64 61.05 844.35 182.44 872.63 171.52 884.3 65.69 859.64"/><polygon class="cls-1" points="-50.64 943.38 34.57 852.39 39.21 867.68 -35.06 947 -50.64 943.38"/><line class="cls-1" x1="39.21" y1="867.68" x2="39.21" y2="867.67"/><line class="cls-1" x1="196.8" y1="1015.23" x2="196.81" y2="1015.23"/><path class="cls-1" d="M353.82,917.29l7.3-136.86L239,842.53l-7.3,136.87ZM250.67,850.16l84.78-43.09,12.46-6.34-5.82,108.95L244.86,959.1l.74-14Z"/><polygon class="cls-1" points="342.09 909.68 330.38 902.04 335.45 807.07 347.91 800.73 342.09 909.68"/><polygon class="cls-1" points="244.86 959.1 245.6 945.14 330.38 902.04 342.09 909.68 244.86 959.1"/><path class="cls-1" d="M239,842.53l122.17-62.1L246.25,705.68,124.07,767.79Zm-90.69-73.45,97.24-49.44,91.44,59.5-12.47,6.34-84.78,43.1Z"/><path class="cls-1" d="M239,842.53,124.07,767.79l-7.3,136.86L231.65,979.4Zm-103.9-53.15,91.43,59.49-5.06,95h0l-.75,14-91.44-59.49Z"/><polygon class="cls-1" points="324.47 785.48 244.76 733.6 245.5 719.64 336.94 779.14 324.47 785.48"/><polygon class="cls-1" points="159.97 776.7 148.26 769.08 245.5 719.64 244.76 733.6 159.97 776.7"/><polygon class="cls-1" points="129.23 898.32 135.05 789.38 146.77 797 141.7 891.97 129.23 898.32"/><polygon class="cls-1" points="129.23 898.32 141.7 891.97 221.42 943.84 221.42 943.85 220.67 957.81 129.23 898.32"/><line class="cls-1" x1="146.77" y1="797" x2="146.77" y2="797"/><line class="cls-1" x1="335.45" y1="807.07" x2="335.45" y2="807.06"/><path class="cls-1" d="M96.23,805.84l39.86-94.34L34.47,724.15-5.4,818.49ZM40.76,732.49l70.53-8.78,10.37-1.29-31.74,75.1L9,807.58,13.11,798Z"/><polygon class="cls-1" points="89.92 797.51 83.63 789.17 111.29 723.71 121.66 722.42 89.92 797.51"/><polygon class="cls-1" points="9.04 807.58 13.11 797.95 83.63 789.17 89.92 797.51 9.04 807.58"/><path class="cls-1" d="M34.47,724.15,136.09,711.5,74.32,629.81-27.31,642.47Zm-45.11-74.64,80.89-10.07,49.17,65-10.37,1.29-70.52,8.78Z"/><path class="cls-1" d="M34.47,724.15l-61.78-81.68L-67.17,736.8-5.4,818.49Zm-59.54-63.73,49.16,65L-3.57,790.91h0l-4.07,9.62-49.18-65Z"/><polygon class="cls-1" points="109.05 705.75 66.19 649.06 70.25 639.44 119.42 704.46 109.05 705.75"/><polygon class="cls-1" points="-4.34 657.84 -10.64 649.51 70.25 639.44 66.19 649.06 -4.34 657.84"/><line class="cls-1" x1="111.29" y1="723.71" x2="111.29" y2="723.71"/><path class="cls-1" d="M436,999.92l-63.54-63.6-23.31,86.82,63.54,63.61Zm-78,20.86,16.18-60.26,2.38-8.86,50.57,50.64-18.56,69.1-6.48-6.49Z"/><polygon class="cls-1" points="427.17 1002.3 418.31 1004.66 374.22 960.52 376.6 951.66 427.17 1002.3"/><polygon class="cls-1" points="408.61 1071.4 402.13 1064.91 418.31 1004.66 427.17 1002.3 408.61 1071.4"/><path class="cls-1" d="M349.18,1023.14l23.31-86.82-86.85,23.22-23.32,86.83Zm-75.62,12L292.12,966l69.13-18.48-2.38,8.85-16.18,60.26Z"/><path class="cls-1" d="M349.18,1023.14l-86.86,23.23,63.54,63.6,86.86-23.22Zm-71.51,27.35L346.8,1032l44.09,44.14h0l6.48,6.49-69.13,18.5Z"/><polygon class="cls-1" points="358.87 956.4 298.6 972.52 292.12 966.03 361.25 947.54 358.87 956.4"/><polygon class="cls-1" points="282.42 1032.77 273.56 1035.14 292.12 966.03 298.6 972.52 282.42 1032.77"/><polygon class="cls-1" points="328.24 1101.13 277.67 1050.49 286.53 1048.12 330.62 1092.26 328.24 1101.13"/><polygon class="cls-1" points="328.24 1101.13 330.62 1092.26 390.89 1076.14 390.89 1076.14 397.37 1082.63 328.24 1101.13"/><line class="cls-1" x1="286.53" y1="1048.12" x2="286.53" y2="1048.12"/><line class="cls-1" x1="374.22" y1="960.52" x2="374.22" y2="960.52"/><path class="cls-1" d="M468.32,970.35l34.26-92-96.81,16.33-34.26,92Zm-56.17-68,67.18-11.33,9.87-1.67-27.27,73.24-77.05,13,3.5-9.39Z"/><polygon class="cls-1" points="461.93 962.64 455.56 954.91 479.33 891.07 489.2 889.4 461.93 962.64"/><polygon class="cls-1" points="384.88 975.64 388.38 966.25 455.56 954.91 461.93 962.64 384.88 975.64"/><path class="cls-1" d="M405.77,894.68l96.81-16.33L440,802.67,343.21,819Zm-46.3-69.61,77.06-13,49.79,60.23L476.44,874,409.26,885.3Z"/><path class="cls-1" d="M405.77,894.68,343.21,819,309,911l62.56,75.67ZM346.1,836.12l49.79,60.23L372.12,960.2h0l-3.5,9.39-49.8-60.23Z"/><polygon class="cls-1" points="476.44 873.96 433.03 821.45 436.53 812.06 486.32 872.29 476.44 873.96"/><polygon class="cls-1" points="365.85 832.78 359.47 825.07 436.53 812.06 433.03 821.45 365.85 832.78"/><polygon class="cls-1" points="318.82 909.36 346.1 836.12 352.48 843.84 328.71 907.69 318.82 909.36"/><polygon class="cls-1" points="318.82 909.36 328.71 907.69 372.12 960.2 372.12 960.2 368.62 969.59 318.82 909.36"/><line class="cls-1" x1="352.48" y1="843.84" x2="352.48" y2="843.84"/><line class="cls-1" x1="479.33" y1="891.07" x2="479.33" y2="891.06"/><path class="cls-1" d="M523.33,1110.4l67.23-43-70.81-36.75-67.23,43Zm-3.22-71.56,49.14,25.49,7.22,3.75L523,1102.27,466.6,1073l6.86-4.39Z"/><polygon class="cls-1" points="522.96 1102.27 522.6 1094.14 569.25 1064.33 576.47 1068.08 522.96 1102.27"/><polygon class="cls-1" points="466.6 1073.03 473.46 1068.64 522.6 1094.14 522.96 1102.27 466.6 1073.03"/><path class="cls-1" d="M519.75,1030.7l70.81,36.75L587,987.75,516.16,951Zm4-67.81,56.36,29.24,2.86,63.44-7.23-3.75-49.14-25.5Z"/><path class="cls-1" d="M519.75,1030.7,516.16,951l-67.23,43,3.59,79.7Zm-10.09-67.18,2.86,63.44-46.65,29.8h0l-6.86,4.38-2.86-63.44Z"/><polygon class="cls-1" points="575.74 1051.82 573.25 996.51 580.11 992.13 582.97 1055.57 575.74 1051.82"/><polygon class="cls-1" points="524.11 971.02 523.75 962.89 580.11 992.13 573.25 996.51 524.11 971.02"/><polygon class="cls-1" points="456.14 997.71 509.66 963.52 510.03 971.65 463.38 1001.46 456.14 997.71"/><polygon class="cls-1" points="456.14 997.71 463.38 1001.46 465.87 1056.76 465.87 1056.77 459.01 1061.15 456.14 997.71"/><line class="cls-1" x1="510.03" y1="971.65" x2="510.03" y2="971.65"/><line class="cls-1" x1="569.25" y1="1064.33" x2="569.25" y2="1064.33"/><path class="cls-1" d="M704.65,1068.89l-1.22-56.64L655,1041.62l1.21,56.64Zm-44.6-24.49L693.67,1024l4.94-3,1,45.09L661,1089.49l-.12-5.78Z"/><polygon class="cls-1" points="699.58 1066.11 694.51 1063.33 693.67 1024.02 698.61 1021.02 699.58 1066.11"/><polygon class="cls-1" points="661.02 1089.49 660.89 1083.71 694.51 1063.33 699.58 1066.11 661.02 1089.49"/><path class="cls-1" d="M655,1041.62l48.44-29.37L653.77,985l-48.45,29.37Zm-39.66-27.48,38.56-23.38,39.53,21.7-4.94,3-33.62,20.38Z"/><path class="cls-1" d="M655,1041.62l-49.67-27.27,1.22,56.64,49.66,27.27Zm-44.48-18.71L650,1044.62l.84,39.3h0l.12,5.78L611.48,1068Z"/><polygon class="cls-1" points="688.48 1015.46 654.02 996.53 653.89 990.75 693.42 1012.46 688.48 1015.46"/><polygon class="cls-1" points="620.4 1016.92 615.33 1014.13 653.89 990.75 654.02 996.53 620.4 1016.92"/><polygon class="cls-1" points="611.48 1068 610.51 1022.91 615.58 1025.69 616.42 1065 611.48 1068"/><polygon class="cls-1" points="611.48 1068 616.42 1065 650.88 1083.92 650.89 1083.92 651.01 1089.7 611.48 1068"/><line class="cls-1" x1="615.58" y1="1025.69" x2="615.58" y2="1025.69"/><line class="cls-1" x1="693.67" y1="1024.02" x2="693.67" y2="1024.02"/><path class="cls-2" d="M1792.6-45,1686.75,70.41l152.86,34L1945.47-11Zm42.23,134.13L1728.75,65.57l-15.6-3.47,84.26-91.86,121.66,27-10.8,11.78Z"/><polygon class="cls-2" points="1797.41 -29.76 1802.19 -14.52 1728.74 65.57 1713.15 62.1 1797.41 -29.76"/><polygon class="cls-2" points="1919.07 -2.73 1908.27 9.05 1802.19 -14.52 1797.41 -29.76 1919.07 -2.73"/><path class="cls-2" d="M1839.61,104.38l-152.86-34,47,149.38,152.87,34ZM1866.25,235l-121.67-27L1707.15,89.12l15.59,3.46,106.08,23.57Z"/><path class="cls-2" d="M1839.61,104.38l47,149.37,105.84-115.41L1945.47-11Zm53,122.35-37.43-118.89,73.45-80.08h0L1939.47,16l37.45,118.89Z"/><polygon class="cls-2" points="1722.74 92.58 1755.37 196.24 1744.58 208.01 1707.15 89.12 1722.74 92.58"/><polygon class="cls-2" points="1861.46 219.81 1866.25 235.04 1744.58 208.01 1755.37 196.24 1861.46 219.81"/><polygon class="cls-2" points="1976.92 134.87 1892.65 226.73 1887.85 211.49 1961.3 131.41 1976.92 134.87"/><line class="cls-2" x1="1887.85" y1="211.49" x2="1887.85" y2="211.49"/><line class="cls-2" x1="1728.75" y1="65.57" x2="1728.74" y2="65.57"/><path class="cls-2" d="M1558.35,195.39l27.51,134.26,102.52-90.95-27.51-134.28Zm116.77,38.88L1604,297.39l-10.46,9.28-21.9-106.88,81.59-72.39,2.81,13.7Z"/><polygon class="cls-2" points="1571.62 199.79 1584.88 204.22 1603.98 297.39 1593.52 306.67 1571.62 199.79"/><polygon class="cls-2" points="1653.21 127.4 1656.02 141.1 1584.88 204.22 1571.62 199.79 1653.21 127.4"/><path class="cls-2" d="M1688.38,238.7l-102.52,90.95,130,43.3,102.52-91Zm106.31,48.15-81.6,72.41-103.5-34.47,10.46-9.28,71.14-63.12Z"/><path class="cls-2" d="M1688.38,238.7l130,43.29L1790.9,147.73l-130-43.31Zm114,25.17-103.5-34.46-19.09-93.17h0l-2.81-13.7L1780.45,157Z"/><polygon class="cls-2" points="1620.05 315.51 1710.29 345.56 1713.09 359.25 1609.59 324.79 1620.05 315.51"/><polygon class="cls-2" points="1781.43 282.44 1794.69 286.85 1713.09 359.25 1710.29 345.56 1781.43 282.44"/><polygon class="cls-2" points="1780.45 156.99 1802.34 263.88 1789.08 259.46 1769.98 166.29 1780.45 156.99"/><polygon class="cls-2" points="1780.45 156.99 1769.98 166.29 1679.75 136.24 1679.75 136.24 1676.94 122.54 1780.45 156.99"/><line class="cls-2" x1="1781.03" y1="283.27" x2="1781.03" y2="283.27"/><line class="cls-2" x1="1603.98" y1="297.39" x2="1603.98" y2="297.39"/><path class="cls-2" d="M1780.28,338.4l-9.85,101.94,93.2-42.44L1873.48,296Zm74.85,53.42-64.67,29.46-9.51,4.33,7.84-81.15L1863,310.68l-1,10.41Z"/><polygon class="cls-2" points="1788.79 344.46 1797.29 350.54 1790.46 421.28 1780.95 425.61 1788.79 344.46"/><polygon class="cls-2" points="1862.96 310.68 1861.96 321.09 1797.29 350.54 1788.79 344.46 1862.96 310.68"/><path class="cls-2" d="M1863.63,397.9l-93.2,42.44,83.37,59.49,93.2-42.44ZM1929,455.65l-74.19,33.78-66.35-47.35,9.51-4.33,64.67-29.46Z"/><path class="cls-2" d="M1863.63,397.9,1947,457.39l9.84-101.94L1873.48,296Zm75.87,43-66.35-47.36,6.82-70.73h0l1-10.41,66.36,47.35Z"/><polygon class="cls-2" points="1797.96 437.75 1855.81 479.04 1854.8 489.43 1788.45 442.08 1797.96 437.75"/><polygon class="cls-2" points="1920.48 449.58 1928.99 455.65 1854.8 489.43 1855.81 479.04 1920.48 449.58"/><polygon class="cls-2" points="1947.34 359.77 1937.82 364.11 1879.97 322.83 1879.97 322.82 1880.98 312.42 1947.34 359.77"/><line class="cls-2" x1="1790.46" y1="421.28" x2="1790.46" y2="421.28"/><line class="cls-2" x1="1551.9" y1="122.1" x2="1551.91" y2="122.1"/><path class="cls-2" d="M1436.05,139.11l-.08,98.18,85.06-49,.08-98.18Zm76.32,44.14-59,34-8.68,5,.06-78.15,67.7-39v10Z"/><polygon class="cls-2" points="1444.72 144.12 1453.39 149.14 1453.34 217.27 1444.66 222.27 1444.72 144.12"/><polygon class="cls-2" points="1512.42 105.1 1512.41 115.12 1453.39 149.14 1444.72 144.12 1512.42 105.1"/><path class="cls-2" d="M1521,188.27l-85.06,49,85,49.16,85.07-49Zm67.65,49.14-67.71,39-67.65-39.13,8.68-5,59-34Z"/><path class="cls-2" d="M1521,188.27l85,49.15.07-98.18-85-49.15Zm76.33,34.12-67.65-39.13.06-68.12h0v-10l67.66,39.11Z"/><polygon class="cls-2" points="1462 232.3 1520.98 266.41 1520.97 276.43 1453.32 237.31 1462 232.3"/><polygon class="cls-2" points="1580.01 232.39 1588.68 237.41 1520.97 276.43 1520.98 266.41 1580.01 232.39"/><polygon class="cls-2" points="1597.43 144.23 1597.36 222.39 1588.69 217.37 1588.74 149.24 1597.43 144.23"/><polygon class="cls-2" points="1597.43 144.23 1588.74 149.24 1529.77 115.14 1529.76 115.14 1529.77 105.12 1597.43 144.23"/><line class="cls-2" x1="1574.84" y1="238.56" x2="1574.84" y2="238.56"/><line class="cls-2" x1="1447.52" y1="192.64" x2="1447.52" y2="192.64"/><path class="cls-2" d="M1401.25-26.23l-66.78,43.65,71.19,36,66.78-43.65Zm4,71.53-49.4-25-7.26-3.67,53.16-34.74,56.65,28.66L1451.55,15Z"/><polygon class="cls-2" points="1401.71 -18.1 1402.15 -9.97 1355.81 20.31 1348.55 16.64 1401.71 -18.1"/><polygon class="cls-2" points="1458.37 10.56 1451.55 15.01 1402.15 -9.97 1401.71 -18.1 1458.37 10.56"/><path class="cls-2" d="M1405.66,53.43l-71.19-36,4.41,79.65,71.19,36Zm-3.3,67.85L1345.7,92.62l-3.51-63.4,7.26,3.67,49.4,25Z"/><path class="cls-2" d="M1405.66,53.43l4.41,79.65,66.78-43.64-4.41-79.66Zm10.77,67.07-3.51-63.4,46.34-30.29h0l6.82-4.45,3.52,63.4Z"/><polygon class="cls-2" points="1349.45 32.89 1352.51 88.17 1345.7 92.62 1342.19 29.22 1349.45 32.89"/><polygon class="cls-2" points="1401.91 113.16 1402.36 121.28 1345.7 92.62 1352.51 88.17 1401.91 113.16"/><polygon class="cls-2" points="1469.6 85.76 1416.43 120.5 1415.98 112.37 1462.33 82.09 1469.6 85.76"/><polygon class="cls-2" points="1469.6 85.76 1462.33 82.09 1459.26 26.81 1459.26 26.81 1466.08 22.36 1469.6 85.76"/><line class="cls-2" x1="1415.98" y1="112.37" x2="1415.98" y2="112.38"/><line class="cls-2" x1="1355.81" y1="20.31" x2="1355.81" y2="20.31"/><path class="cls-2" d="M1251.08-13.3l-38.45,41.61,55.25,12.5L1306.34-.8Zm15.09,48.59-38.34-8.67-5.64-1.28L1252.8-7.78l44,10-3.92,4.25Z"/><polygon class="cls-2" points="1252.8 -7.78 1254.51 -2.26 1227.83 26.62 1222.19 25.34 1252.8 -7.78"/><polygon class="cls-2" points="1296.78 2.17 1292.86 6.42 1254.51 -2.26 1252.8 -7.78 1296.78 2.17"/><path class="cls-2" d="M1267.88,40.81l-55.25-12.5,16.81,54.11,55.26,12.49Zm9.46,47.31-44-10L1220,35.11l5.64,1.27L1264,45.05Z"/><path class="cls-2" d="M1267.88,40.81l16.82,54.1,38.45-41.6L1306.34-.8Zm19,44.34-13.37-43.07,26.68-28.87h0L1304.13,9,1317.52,52Z"/><polygon class="cls-2" points="1225.62 36.38 1237.28 73.93 1233.36 78.17 1219.98 35.11 1225.62 36.38"/><polygon class="cls-2" points="1275.63 82.6 1277.34 88.12 1233.36 78.17 1237.28 73.93 1275.63 82.6"/><polygon class="cls-2" points="1317.52 52.03 1286.9 85.15 1285.19 79.63 1311.87 50.76 1317.52 52.03"/><polygon class="cls-2" points="1317.52 52.03 1311.87 50.76 1300.21 13.21 1300.21 13.21 1304.13 8.96 1317.52 52.03"/><line class="cls-2" x1="1285.19" y1="79.63" x2="1285.19" y2="79.63"/><line class="cls-2" x1="1227.83" y1="26.62" x2="1227.83" y2="26.62"/><path class="cls-2" d="M1504.13,63.21l54.81,71.27,34.31-83.1-54.81-71.27Zm80-10.62-23.81,57.66-3.5,8.48L1513.22,62l27.31-66.14,5.59,7.27Z"/><polygon class="cls-2" points="1513.22 61.99 1522.31 60.8 1560.35 110.25 1556.85 118.73 1513.22 61.99"/><polygon class="cls-2" points="1540.53 -4.14 1546.12 3.13 1522.31 60.8 1513.22 61.99 1540.53 -4.14"/><path class="cls-2" d="M1593.25,51.38l-34.31,83.1,89.12-11.84,34.31-83.1Zm76.53-2.15-27.31,66.14-70.94,9.42,3.5-8.48,23.81-57.66Z"/><path class="cls-2" d="M1593.25,51.38l89.12-11.84-54.81-71.26-89.12,11.83Zm74.44-17.9-70.94,9.42-38-49.45h0l-5.6-7.27,70.94-9.43Z"/><polygon class="cls-2" points="1575.03 116.31 1636.88 108.1 1642.47 115.37 1571.53 124.79 1575.03 116.31"/><polygon class="cls-2" points="1660.69 50.44 1669.78 49.23 1642.47 115.37 1636.88 108.1 1660.69 50.44"/><polygon class="cls-2" points="1624.06 -23.25 1667.69 33.48 1658.59 34.69 1620.56 -14.77 1624.06 -23.25"/><line class="cls-2" x1="1658.59" y1="34.69" x2="1658.6" y2="34.69"/></svg>