<svg id="Layer_12" data-name="Layer 12" xmlns="http://www.w3.org/2000/svg" viewBox="0 0 253 241.39"><defs><style>.cls-1{fill:#fff;}.cls-2{fill:none;stroke:#fff;stroke-miterlimit:10;stroke-width:9px;}</style></defs><path class="cls-1" d="M1530.22,1313.1l1.78,1.79v-11.72h-11.41l1.45,1.63s-8,5.19-20,3.89l.63-5.52h-6.17v23.33h3.26l.77-6.38A47.62,47.62,0,0,0,1530.22,1313.1Z" transform="translate(-1360 -1141.74)"/><path class="cls-1" d="M1475.1,1268.24l-40.4,41.06-23.25-18.6-12.18,36.53-19.44-15.12L1360,1350l5,3,16.7-32.44,20.34,15.83,12.14-36.42,21,16.76,36.28-36.87h0a50.83,50.83,0,0,1,3.68-11.61Z" transform="translate(-1360 -1141.74)"/><path class="cls-1" d="M1471.42,1279.85a50.83,50.83,0,0,1,3.68-11.61A50.83,50.83,0,0,0,1471.42,1279.85Z" transform="translate(-1360 -1141.74)"/><polygon class="cls-1" points="249 3.26 223.32 51.82 205.92 34.42 188.98 104.45 173.55 97.25 155.93 117.98 143.92 97.22 120.86 120.66 124.76 124.57 142.77 106.27 155.07 127.52 175.03 104.04 192.76 112.31 208.98 45.29 224.74 61.05 253 6.26 249 3.26"/><rect class="cls-1" x="1481.81" y="1262.6" height="5.53" transform="translate(-1820.73 276.67) rotate(-45)"/><path class="cls-1" d="M1475.81,1266.71l0-.1Z" transform="translate(-1360 -1141.74)"/><path class="cls-1" d="M1477.4,1263.58c.31-.55.62-1.12.95-1.68C1478,1262.46,1477.71,1263,1477.4,1263.58Z" transform="translate(-1360 -1141.74)"/><path class="cls-1" d="M1476.56,1265.18c.09-.16.17-.32.25-.48C1476.73,1264.86,1476.65,1265,1476.56,1265.18Z" transform="translate(-1360 -1141.74)"/><polygon class="cls-1" points="115.1 126.49 115.1 126.49 115.11 126.49 115.1 126.49"/><path class="cls-1" d="M1490,1319.32l0,0Z" transform="translate(-1360 -1141.74)"/><path class="cls-1" d="M1491,1319.9l0,0Z" transform="translate(-1360 -1141.74)"/><path class="cls-1" d="M1490.8,1319.78l0,0Z" transform="translate(-1360 -1141.74)"/><path class="cls-1" d="M1489.48,1319h0Z" transform="translate(-1360 -1141.74)"/><path class="cls-1" d="M1488.1,1318h0Z" transform="translate(-1360 -1141.74)"/><polygon class="cls-1" points="111.42 138.12 111.42 138.12 111.42 138.12 111.42 138.12"/><path class="cls-1" d="M1471,1282.36h0Z" transform="translate(-1360 -1141.74)"/><polygon class="cls-1" points="115.1 126.49 115.1 126.49 115.1 126.49 115.1 126.49"/><polygon class="cls-1" points="111.42 138.12 111.42 138.12 111.42 138.11 111.42 138.12"/><path class="cls-1" d="M1509.69,1319.12a5.46,5.46,0,0,1-3.38,1.31,45.1,45.1,0,0,0,6.47-.66,16,16,0,0,1-2.26-.41Z" transform="translate(-1360 -1141.74)"/><path class="cls-1" d="M1506.59,1320.25a5.54,5.54,0,0,1-5.61-5.41c-.1-1.48-.14-2.88-.1-4.29a11.74,11.74,0,0,1,0-1.32h0c0-.49.09-1,.16-1.48a4.29,4.29,0,0,1,1.74-3l2.21-19.29,13.31,14.93a5.5,5.5,0,0,1,1.35.45c2.19,1.13,3.92,3.7,6.16,4.52a6,6,0,0,1,3,8.59c1-.56,1.51-.93,1.51-.93l18.12,18.11c1.38-1.17,2.74-2.39,4-3.7L1462.09,1237a64,64,0,0,0,35.73,108.49l3.08-25.47A44.23,44.23,0,0,0,1506.59,1320.25Zm-15.17-.52s-35.64-18.93-12.81-58.46l8.91,8.9s-14.48,16.71,5.57,36.75Z" transform="translate(-1360 -1141.74)"/><path class="cls-1" d="M1519.52,1317.48a7.08,7.08,0,0,1-1.11.94c.85-.25,1.66-.53,2.43-.8A4.57,4.57,0,0,1,1519.52,1317.48Z" transform="translate(-1360 -1141.74)"/><path class="cls-1" d="M1506.31,1320.43h0Z" transform="translate(-1360 -1141.74)"/><path class="cls-1" d="M1577.89,1211.66a100.58,100.58,0,0,0-142.09,0c-.9.9-1.77,1.83-2.63,2.76,3.24,3.59,6.12,7.47,9.34,11.07a5.57,5.57,0,0,1,.81,1.19c2.22.72,4.45,1.38,6.65,2.15.48-.51,1-1,1.46-1.54a78.45,78.45,0,0,1,110.83,0h0a78.35,78.35,0,0,1,0,110.83c-1.29,1.3-2.63,2.52-4,3.7l.21.21c-30,25.32-62.94,18.91-62.94,18.91l.08-.7a78,78,0,0,1-44.19-22.12l-.41-.43c-4.9,5.5-10.5,10.34-15.56,15.71.12.12.22.24.34.35a100.47,100.47,0,1,0,142.09-142.09Z" transform="translate(-1360 -1141.74)"/><path class="cls-1" d="M1558.48,1342l-.21-.21a78.35,78.35,0,0,1-62.65,18.42l-.08.7S1528.43,1367.35,1558.48,1342Z" transform="translate(-1360 -1141.74)"/><path class="cls-1" d="M1449.8,1229a51.11,51.11,0,1,1,0-72.27l-15.63,15.63a29,29,0,1,0,0,41" transform="translate(-1360 -1141.74)"/><line class="cls-2" x1="140.13" y1="145.85" x2="129.4" y2="232.89"/><line class="cls-2" x1="102" y1="96.67" x2="209.21" y2="203.88"/><rect class="cls-1" x="1499.76" y="1284.64" width="4" height="25.4" transform="translate(-1224.66 -1283.59) rotate(5.66)"/><rect class="cls-1" x="1493.39" y="1336.9" width="4" height="25.4" transform="translate(-1203.01 -1297.56) rotate(6.29)"/><rect class="cls-1" x="1462.6" y="1235.54" width="4.41" height="3.54" transform="translate(-56.06 -1815.12) rotate(45)"/></svg>