<svg id="Layer_1" data-name="Layer 1" xmlns="http://www.w3.org/2000/svg" viewBox="0 0 817.56 942.84"><defs><style>.cls-1{fill:#2b7fa4;}.cls-1,.cls-2,.cls-3,.cls-4,.cls-5,.cls-6{stroke:#fff;stroke-width:3px;}.cls-1,.cls-3,.cls-4,.cls-5,.cls-6{stroke-miterlimit:10;}.cls-2{fill:#39a9db;stroke-linejoin:round;}.cls-3{fill:#052344;}.cls-4{fill:#083d77;}.cls-5{fill:#f5f5f5;}.cls-6{fill:red;}</style></defs><polygon class="cls-1" points="207.1 801.63 389.21 909.63 389.21 844.77 211.83 742.36 207.1 801.63"/><path class="cls-2" d="M92.72,261.2V730.9L500,966V496.34ZM465.34,906.05,127.39,710.94V321.19l338,195.11Z" transform="translate(-91.22 -24.7)"/><polygon class="cls-3" points="111.13 439.84 151.45 463.12 151.45 652.77 111.13 629.49 111.13 439.84"/><polygon class="cls-3" points="111.13 629.49 151.45 606.52 294.16 684.97 287.15 725.63 174.27 692.75 111.13 629.49"/><path class="cls-4" d="M410,484.34,127.41,321.19V711L325.75,825.49c62,35.81,139.57-9,139.57-80.58V580.17A110.66,110.66,0,0,0,410,484.34ZM381.71,639.39v54.36c0,28.44-30.79,46.21-55.42,32L202.35,654.19V464.54L320,532.44A123.5,123.5,0,0,1,381.71,639.39Z" transform="translate(-91.22 -24.7)"/><polygon class="cls-1" points="607.73 742.36 430.35 844.77 430.35 909.63 612.45 801.63 607.73 742.36"/><path class="cls-2" d="M500,496.34V966L907.28,730.9V261.2Zm372.61,214.6-338,195.11V516.3l338-195.11Z" transform="translate(-91.22 -24.7)"/><polygon class="cls-1" points="739.6 420.64 739.6 610.29 781.43 586.15 781.43 396.5 739.6 420.64"/><polygon class="cls-3" points="781.43 586.15 739.6 561.88 528.96 679.49 523.85 715.41 626.96 711.86 781.43 595.41 781.43 586.15"/><path class="cls-4" d="M591.18,483.63,872.65,321.16v100L649,550.3a61.36,61.36,0,0,0-30.68,53.15v89c0,29,31.39,47.13,56.51,32.63L872.65,610.85V710.92L673.19,826.08c-61.57,35.55-138.52-8.91-138.49-80l.08-164.82A112.8,112.8,0,0,1,591.18,483.63Z" transform="translate(-91.22 -24.7)"/><polygon class="cls-1" points="319.98 89.63 409.15 37.63 509.09 93.41 409.15 122.52 319.98 89.63"/><path class="cls-3" d="M335.36,313.79l148.46-85.71a32.65,32.65,0,0,1,32.62,0L721.59,346.53,778.09,312l-278-167.33L316.09,262Z" transform="translate(-91.22 -24.7)"/><path class="cls-5" d="M245.09,265.26v52.57L281,337.44l20-13.33-54.15-59.52A1,1,0,0,0,245.09,265.26Z" transform="translate(-91.22 -24.7)"/><polygon class="cls-1" points="97.68 261.25 243.51 177.06 211.13 144.68 58.95 229.75 97.68 261.25"/><path class="cls-2" d="M499.87,26.2,93.1,261.05,500.38,496.19,907.15,261.34Zm.46,430L162.39,261.08,499.92,66.2l338,195.12Z" transform="translate(-91.22 -24.7)"/><path class="cls-4" d="M574.41,109.13l263.5,152.16-86.63,50L529.82,183.45a65.71,65.71,0,0,0-65.69,0L381.75,231c-21.79,12.58-21.79,44,0,56.6L587,406.13l-86.67,50L286.42,332.66c-55.13-31.84-55.11-111.42,0-143.22l139.32-80.35A148.66,148.66,0,0,1,574.41,109.13Z" transform="translate(-91.22 -24.7)"/><line class="cls-6" x1="409.15" y1="199.11" x2="409.15" y2="150.03"/></svg>