<svg id="Layer_1" data-name="Layer 1" xmlns="http://www.w3.org/2000/svg" xmlns:xlink="http://www.w3.org/1999/xlink" viewBox="0 0 434.94 231.7"><defs><style>.cls-1,.cls-3,.cls-4{fill:#fff;}.cls-10,.cls-2{fill:none;}.cls-10,.cls-3,.cls-4,.cls-6,.cls-7,.cls-8,.cls-9{stroke:#000;stroke-miterlimit:10;}.cls-10,.cls-3{stroke-width:2px;}.cls-5{clip-path:url(#clip-path);}.cls-6{fill:#06a77d;}.cls-7{fill:#fdca40;}.cls-8{fill:#083d77;}.cls-9{fill:#39a9db;}.cls-11{clip-path:url(#clip-path-2);}</style><clipPath id="clip-path"><path class="cls-1" d="M249.66,2.16C213.4-7.78,189.93,47.45,208.1,112.5c11.4,40.81,34.38,76.86,75.13,81.54,42.44,4.87,59.07-34.83,66.2-65.56,4.44-19.13-.5-47.09-10.82-59.75C320.84,46.93,287.8,12.62,249.66,2.16Z"/></clipPath><clipPath id="clip-path-2"><path class="cls-2" d="M416.4,111.49c9.06,12,13.65,45,9.91,69.4-2.46,16.13-8,30.25-20.45,28.81-20.51-2.35-32-40.23-37.78-72.1-3.94-21.65.43-43.1,8.58-43.94C388.13,92.49,403.8,94.73,416.4,111.49Z"/></clipPath></defs><path class="cls-3" d="M150.73,134.87,386.86,94.5V106l-240.6,37.71a4.6,4.6,0,0,0-3.89,4.54v8.85a3.66,3.66,0,0,1-3.19,3.63h0a3.67,3.67,0,0,1-4.13-3.63v-3.62A18.87,18.87,0,0,1,150.73,134.87Z"/><path class="cls-3" d="M13.66,81.76,234.59,4.91V19L10.53,92.09a4.59,4.59,0,0,0-3.17,4.36v12.6a3.18,3.18,0,0,1-2.31,3.06h0a3.18,3.18,0,0,1-4-3.06V99.57A18.87,18.87,0,0,1,13.66,81.76Z"/><path class="cls-4" d="M366.74,117.32c-7.78-23.15-15.64-7.63-15.64-7.63l-1.64-3.78s10-15.53,19.92,7.62l-2.64,3.79"/><path class="cls-4" d="M416.4,111.49c9.06,12,13.65,45,9.91,69.4-2.46,16.13-8,30.25-20.45,28.81-20.51-2.35-32-40.23-37.78-72.1-3.94-21.65.43-43.1,8.58-43.94C388.13,92.49,403.8,94.73,416.4,111.49Z"/><path class="cls-1" d="M249.66,2.16C213.4-7.78,189.93,47.45,208.1,112.5c11.4,40.81,34.38,76.86,75.13,81.54,42.44,4.87,59.07-34.83,66.2-65.56,4.44-19.13-.5-47.09-10.82-59.75C320.84,46.93,287.8,12.62,249.66,2.16Z"/><g class="cls-5"><polygon class="cls-6" points="223.3 178.62 197.17 174.98 197.17 60.62 223.3 71.62 223.3 178.62"/><polygon class="cls-7" points="246.44 193.47 223.5 191.03 223.5 45.08 246.44 56.35 246.44 193.47"/><polygon class="cls-8" points="266.78 222.09 246.47 221.53 246.47 121.08 266.78 127.37 266.78 222.09"/><polygon class="cls-9" points="284.64 218.54 266.48 217.81 266.48 99.29 284.64 106.42 284.64 218.54"/><polygon class="cls-8" points="300.99 224.12 284.7 223.73 284.7 134.06 300.99 139.04 300.99 224.12"/><polygon class="cls-7" points="315.64 219.79 300.93 219.26 300.93 88.62 315.64 95.52 315.64 219.79"/><polygon class="cls-9" points="328.98 217.02 315.64 216.38 315.64 58.57 328.98 66.54 328.98 217.02"/><polygon class="cls-6" points="341.14 198.29 328.99 196.76 328.99 119.58 341.14 124.55 341.14 198.29"/><polygon class="cls-7" points="352.25 173.63 341.13 171.06 341.13 97.31 352.25 103.01 352.25 173.63"/></g><path class="cls-10" d="M249.66,2.16C213.4-7.78,189.93,47.45,208.1,112.5c11.4,40.81,34.38,76.86,75.13,81.54,42.44,4.87,59.07-34.83,66.2-65.56,4.44-19.13-.5-47.09-10.82-59.75C320.84,46.93,287.8,12.62,249.66,2.16Z"/><g class="cls-11"><polygon class="cls-4" points="350.16 206.52 334.96 205.92 334.96 138.88 350.16 142.61 350.16 206.52"/><polygon class="cls-4" points="364.11 214.13 350.28 213.92 350.28 126.73 364.11 130.84 364.11 214.13"/><polygon class="cls-4" points="376.77 230.64 364.13 231.18 364.13 170.15 376.77 172.22 376.77 230.64"/><polygon class="cls-9" points="388.2 227.62 376.58 228.01 376.58 154.94 388.2 157.55 388.2 227.62"/><polygon class="cls-8" points="398.95 230.38 388.24 230.86 388.24 174.82 398.95 176.54 398.95 230.38"/><polygon class="cls-7" points="408.8 226.93 398.91 227.26 398.91 134.53 408.8 137.72 408.8 226.93"/><polygon class="cls-9" points="417.97 224.5 408.8 224.71 408.8 119.29 417.97 122.93 417.97 224.5"/><polygon class="cls-6" points="427.62 211.64 417.98 211.39 417.98 161.49 427.62 163.5 427.62 211.64"/><polygon class="cls-4" points="434.44 194.71 427.46 193.87 427.46 145.72 434.44 148.21 434.44 194.71"/></g><path class="cls-10" d="M416.4,111.49c9.06,12,13.65,45,9.91,69.4-2.46,16.13-8,30.25-20.45,28.81-20.51-2.35-32-40.23-37.78-72.1-3.94-21.65.43-43.1,8.58-43.94C388.13,92.49,403.8,94.73,416.4,111.49Z"/></svg>