<svg id="Layer_1" data-name="Layer 1" xmlns="http://www.w3.org/2000/svg" viewBox="0 0 305 107.95"><defs><style>.cls-1{fill:#1c4075;}</style></defs><path class="cls-1" d="M109,30.56l-7.62,3.52a7.81,7.81,0,0,0-7.51-4.46c-6.16,0-9.68,5.4-9.68,13,0,7.4,3.58,13,9.74,13,3.69,0,5.86-1.59,8-5.22l6.93,4.1c-2.82,5.81-7.75,9.27-15.2,9.27-10.73,0-17.94-8.21-17.94-21.18,0-12.49,7.5-21.17,18.24-21.17C101.69,21.47,106.38,25.22,109,30.56Z" transform="translate(-75.71 -21.47)"/><path class="cls-1" d="M152.54,63.17h-9L140.29,54h-15L122,63.17h-8.79l15.71-41h8Zm-15.07-17-2.64-7.45c-.82-2.4-1.64-4.86-2.05-6.39-.41,1.53-1.23,4-2.06,6.39l-2.63,7.45Z" transform="translate(-75.71 -21.47)"/><path class="cls-1" d="M193.43,63.17H184l-7.33-14.78h-8.27V63.17h-8.21v-41h19.12c7.74,0,14.14,4.28,14.14,13,0,6.16-2.64,10-7.86,12.08ZM185,35.31c0-3.69-2.23-5.22-5.86-5.22H168.38V40.65h10.74C182.93,40.65,185,38.89,185,35.31Z" transform="translate(-75.71 -21.47)"/><path class="cls-1" d="M236,42.59c0,13.25-7.45,21.23-18.12,21.23S199.76,56,199.76,42.7s7.45-21.23,18.18-21.23S236,29.33,236,42.59Zm-8.45.11c0-8.33-4-13.08-9.73-13.08s-9.56,4.64-9.56,13,4,13.08,9.73,13.08S227.5,51,227.5,42.7Z" transform="translate(-75.71 -21.47)"/><path class="cls-1" d="M273,63.17h-28.8v-41h8.21v33H273Z" transform="translate(-75.71 -21.47)"/><path class="cls-1" d="M289.39,63.17h-8.22v-41h8.22Z" transform="translate(-75.71 -21.47)"/><path class="cls-1" d="M333.79,63.17h-7.33l-15.08-22.4c-1-1.53-2.35-3.58-2.87-4.64,0,1.53.11,6.69.11,9V63.17h-8.09v-41h7.86l14.55,21.7c1,1.52,2.34,3.58,2.87,4.63,0-1.52-.12-6.69-.12-9V22.12h8.1Z" transform="translate(-75.71 -21.47)"/><path class="cls-1" d="M380.71,63.17h-9L368.45,54h-15l-3.23,9.15h-8.8l15.72-41h8Zm-15.07-17L363,38.77c-.82-2.4-1.65-4.86-2.06-6.39-.41,1.53-1.23,4-2.05,6.39l-2.64,7.45Z" transform="translate(-75.71 -21.47)"/><path class="cls-1" d="M78.72,94c0-6.56,3.44-9.64,8.74-9.64a9,9,0,0,1,4.34,1.09V76H98v34.24c0,6-3.74,9.64-9.65,9.64s-9.64-3.68-9.64-9.64Zm13.08-.12a3.44,3.44,0,1,0-6.87,0v16.52a3.44,3.44,0,1,0,6.87,0Z" transform="translate(-75.71 -21.47)"/><path class="cls-1" d="M104.16,108.4c0-6.57,3.43-9.64,8.74-9.64a9.32,9.32,0,0,1,4.34,1.08v-6c0-2.17-1.21-3.55-3.2-3.55s-3.19,1.38-3.19,3.55v2.42h-6.21V94c0-6,3.68-9.64,9.4-9.64s9.4,3.68,9.4,9.64v16.22c0,6-3.73,9.64-9.64,9.64s-9.64-3.68-9.64-9.64Zm13.08-.12a3.44,3.44,0,1,0-6.87,0v2.11a3.44,3.44,0,1,0,6.87,0Z" transform="translate(-75.71 -21.47)"/><path class="cls-1" d="M138,90.62v28.81h-6.2V90.62h-5V84.77h5v-7H138v7h5v5.85Z" transform="translate(-75.71 -21.47)"/><path class="cls-1" d="M146.29,108.4c0-6.57,3.44-9.64,8.74-9.64a9.26,9.26,0,0,1,4.34,1.08v-6c0-2.17-1.2-3.55-3.19-3.55S153,91.7,153,93.87v2.42h-6.21V94c0-6,3.68-9.64,9.41-9.64s9.4,3.68,9.4,9.64v16.22c0,6-3.74,9.64-9.64,9.64s-9.65-3.68-9.65-9.64Zm13.08-.12a3.23,3.23,0,0,0-3.43-3.56,3.27,3.27,0,0,0-3.44,3.56v2.11a3.21,3.21,0,0,0,3.44,3.49,3.18,3.18,0,0,0,3.43-3.49Z" transform="translate(-75.71 -21.47)"/><path class="cls-1" d="M199.94,107v3.2c0,6-3.8,9.64-9.65,9.64s-9.64-3.68-9.64-9.64V94c0-6,3.74-9.64,9.64-9.64S199.94,88,199.94,94v3.2h-6.21V93.87a3.26,3.26,0,0,0-3.44-3.55,3.22,3.22,0,0,0-3.43,3.55v16.52a3.18,3.18,0,0,0,3.43,3.49,3.21,3.21,0,0,0,3.44-3.49V107Z" transform="translate(-75.71 -21.47)"/><path class="cls-1" d="M219,119.43V93.87a3.44,3.44,0,1,0-6.88,0v25.56h-6.2V76h6.2v9.47a9,9,0,0,1,4.34-1.09c5.31,0,8.74,3.08,8.74,9.64v25.44Z" transform="translate(-75.71 -21.47)"/><path class="cls-1" d="M231.34,108.4c0-6.57,3.44-9.64,8.74-9.64a9.26,9.26,0,0,1,4.34,1.08v-6c0-2.17-1.2-3.55-3.19-3.55S238,91.7,238,93.87v2.42h-6.21V94c0-6,3.68-9.64,9.41-9.64s9.4,3.68,9.4,9.64v16.22c0,6-3.74,9.64-9.64,9.64s-9.65-3.68-9.65-9.64Zm13.08-.12a3.23,3.23,0,0,0-3.43-3.56,3.27,3.27,0,0,0-3.44,3.56v2.11a3.21,3.21,0,0,0,3.44,3.49,3.18,3.18,0,0,0,3.43-3.49Z" transform="translate(-75.71 -21.47)"/><path class="cls-1" d="M256.9,119.43V76h6.21v43.46Z" transform="translate(-75.71 -21.47)"/><path class="cls-1" d="M269.62,119.43V76h6.21v43.46Z" transform="translate(-75.71 -21.47)"/><path class="cls-1" d="M301.38,105.33H288.3v5.18a3.44,3.44,0,1,0,6.88,0v-2.59h6.2v2.29c0,6-3.79,9.64-9.64,9.64s-9.64-3.68-9.64-9.64V94c0-6,3.73-9.64,9.64-9.64S301.38,88,301.38,94ZM288.3,99.78h6.88v-6a3.44,3.44,0,1,0-6.88,0Z" transform="translate(-75.71 -21.47)"/><path class="cls-1" d="M307.53,119.43V94c0-6,3.74-9.64,9.65-9.64S326.82,88,326.82,94v25.44h-6.21V93.87a3.44,3.44,0,1,0-6.87,0v25.56Z" transform="translate(-75.71 -21.47)"/><path class="cls-1" d="M78.72,122.68l267.33,1.2v-5.54h0a8.53,8.53,0,0,1-4.34,1.09c-5.3,0-8.74-3.07-8.74-9.64V94.06c0-6,3.8-9.65,9.64-9.65s9.65,3.68,9.65,9.65V123.9l-10.85,5.52L78.72,128.23ZM346.05,93.87a3.47,3.47,0,0,0-3.4-3.49,3.22,3.22,0,0,0-3.47,3.49v16a3.25,3.25,0,0,0,3.41,3.55,3.51,3.51,0,0,0,3.46-3.55Z" transform="translate(-75.71 -21.47)"/><path class="cls-1" d="M377.69,105.33H364.62v5.18a3.18,3.18,0,0,0,3.43,3.49,3.21,3.21,0,0,0,3.44-3.49v-2.59h6.2v2.29c0,6-3.79,9.64-9.64,9.64s-9.64-3.68-9.64-9.64V94c0-6,3.73-9.64,9.64-9.64S377.69,88,377.69,94Zm-13.07-5.55h6.87v-6a3.26,3.26,0,0,0-3.44-3.55,3.22,3.22,0,0,0-3.43,3.55Z" transform="translate(-75.71 -21.47)"/><path class="cls-1" d="M346.05,120.62s.4,3.84-4.64,3.26v5.54h4.64s6.21-.93,6.21-5.52Z" transform="translate(-75.71 -21.47)"/></svg>