<?xml version="1.0" encoding="utf-8"?>
<!-- Generator: Adobe Illustrator 25.4.1, SVG Export Plug-In . SVG Version: 6.00 Build 0)  -->
<svg version="1.1" id="Layer_1" xmlns="http://www.w3.org/2000/svg" xmlns:xlink="http://www.w3.org/1999/xlink" x="0px" y="0px"
	 viewBox="0 0 393.6 278.5" style="enable-background:new 0 0 393.6 278.5;" xml:space="preserve">
<style type="text/css">
	.st0{fill:none;stroke:#89043D;stroke-width:0.75;stroke-miterlimit:10;}
</style>
<g id="Layer_2_00000147904595228694409730000017871721380307610018_">
	<g id="Layer_1-2">
		<line class="st0" x1="53.1" y1="29.3" x2="53.1" y2="278.5"/>
		<line class="st0" x1="90" y1="29.3" x2="90" y2="253.3"/>
		<line class="st0" x1="126.9" y1="29.3" x2="126.9" y2="270"/>
		<line class="st0" x1="163.8" y1="29.3" x2="163.8" y2="253.3"/>
		<line class="st0" x1="200.6" y1="29.3" x2="200.6" y2="253.3"/>
		<line class="st0" x1="237.6" y1="29.3" x2="237.6" y2="253.3"/>
		<line class="st0" x1="274.4" y1="29.3" x2="274.4" y2="253.3"/>
		<line class="st0" x1="311.3" y1="29.3" x2="311.3" y2="253.3"/>
		<line class="st0" x1="348.2" y1="0" x2="348.2" y2="88.9"/>
		<line class="st0" x1="28.9" y1="44.5" x2="384.1" y2="44.5"/>
		<line class="st0" x1="28.9" y1="76" x2="356" y2="76"/>
		<line class="st0" x1="28.9" y1="107.5" x2="331.8" y2="107.5"/>
		<line class="st0" x1="28.9" y1="139" x2="331.8" y2="139"/>
		<line class="st0" x1="28.9" y1="170.5" x2="352.5" y2="170.5"/>
		<line class="st0" x1="28.9" y1="202" x2="361.7" y2="202"/>
		<line class="st0" x1="0" y1="233.5" x2="393.6" y2="233.5"/>
		<line class="st0" x1="301" y1="11" x2="384.1" y2="11"/>
		<line class="st0" x1="13.9" y1="267.4" x2="76.4" y2="267.4"/>
		<line class="st0" x1="348.1" y1="160.7" x2="348.1" y2="253.7"/>
	</g>
</g>
</svg>
