<svg xmlns="http://www.w3.org/2000/svg" viewBox="0 0 393.56 278.47"><defs><style>.cls-1{fill:#fff;stroke:#9b9a9a;stroke-miterlimit:10;stroke-width:0.75px;}</style></defs><g id="Layer_2" data-name="Layer 2"><g id="Layer_1-2" data-name="Layer 1"><line class="cls-1" x1="53.07" y1="29.31" x2="53.07" y2="278.47"/><line class="cls-1" x1="89.96" y1="29.31" x2="89.96" y2="253.29"/><line class="cls-1" x1="126.86" y1="29.31" x2="126.86" y2="270.04"/><line class="cls-1" x1="163.76" y1="29.31" x2="163.76" y2="253.29"/><line class="cls-1" x1="200.65" y1="29.31" x2="200.65" y2="253.29"/><line class="cls-1" x1="237.55" y1="29.31" x2="237.55" y2="253.29"/><line class="cls-1" x1="274.44" y1="29.31" x2="274.44" y2="253.29"/><line class="cls-1" x1="311.34" y1="29.31" x2="311.34" y2="253.29"/><line class="cls-1" x1="348.24" x2="348.24" y2="88.94"/><line class="cls-1" x1="28.9" y1="44.46" x2="384.14" y2="44.46"/><line class="cls-1" x1="28.9" y1="75.97" x2="356" y2="75.97"/><line class="cls-1" x1="28.9" y1="107.47" x2="331.8" y2="107.47"/><line class="cls-1" x1="28.9" y1="138.98" x2="331.8" y2="138.98"/><line class="cls-1" x1="28.9" y1="170.48" x2="352.47" y2="170.48"/><line class="cls-1" x1="28.9" y1="201.99" x2="361.72" y2="201.99"/><line class="cls-1" y1="233.49" x2="393.56" y2="233.49"/><line class="cls-1" x1="301.04" y1="10.97" x2="384.14" y2="10.97"/><line class="cls-1" x1="13.89" y1="267.41" x2="76.41" y2="267.41"/><line class="cls-1" x1="348.07" y1="160.72" x2="348.07" y2="253.72"/></g></g></svg>