<svg id="Layer_1" data-name="Layer 1" xmlns="http://www.w3.org/2000/svg" viewBox="0 0 470.73 478.76"><defs><style>.cls-1{fill:#fff;}.cls-2{fill:#39a9db;}.cls-3{fill:#06a77d;}.cls-4{fill:#fdca40;}.cls-5{fill:#083d77;}.cls-6{fill:none;stroke:#000;stroke-miterlimit:10;}.cls-7{font-size:26px;font-family:Consolas;}</style></defs><path class="cls-1" d="M607.81,639.39v0l0,0L431,462.67l4.62-3.95,171,171Z" transform="translate(-160.97 -161.17)"/><path class="cls-1" d="M631.2,605.14v11l-23.32,23.32s0,0-.06,0v0l-1.19-9.67,24.56-24.56Z" transform="translate(-160.97 -161.17)"/><path class="cls-1" d="M631.18,605.12a0,0,0,0,1,0,0l-24.56,24.56-171-171a170.5,170.5,0,0,0,23.52-25.64Z" transform="translate(-160.97 -161.17)"/><path class="cls-1" d="M493.11,327.49c0,1.63,0,3.26-.08,4.88,0-89.86-77.74-170.61-169.51-170.66,1.25,0,2.51,0,3.77,0A165.82,165.82,0,0,1,493.11,327.49Z" transform="translate(-160.97 -161.17)"/><path class="cls-1" d="M493,332.37a.06.06,0,0,1,0,.06,165,165,0,0,1-36.09,98.45l-.39-.39-24.36,24.8.34.34A165.82,165.82,0,0,1,161.59,333.75C164,265,204.22,200.45,264.1,174.14l.09,0a165.15,165.15,0,0,1,59.24-12.39h.09C415.29,161.76,493,242.51,493,332.37ZM462.2,391.18a149.18,149.18,0,1,0-250.53,30.54l.29.36c.61.75,1.23,1.5,1.87,2.23q1.88,2.22,3.86,4.35l1.63,1.74.57.6c.61.62,1.21,1.24,1.83,1.85s1.37,1.37,2.07,2q3.14,3,6.46,5.87c.73.64,1.47,1.26,2.22,1.87q2.25,1.86,4.57,3.62c.77.59,1.54,1.17,2.33,1.74l.12.09c2.31,1.69,4.68,3.32,7.09,4.86l1,.63c.68.44,1.35.86,2,1.27s1.26.77,1.89,1.14l.16.09c.69.41,1.38.82,2.08,1.21s1.4.79,2.11,1.17c1.41.78,2.83,1.52,4.26,2.24.72.37,1.44.73,2.16,1.07a144.59,144.59,0,0,0,18,7.31q3.25,1.1,6.59,2c.71.21,1.44.41,2.16.59s1.45.39,2.17.56a149.81,149.81,0,0,0,31.41,4.33c.81,0,1.63.05,2.44.06l2.28,0c1.13,0,2.25,0,3.37,0s2.23-.06,3.34-.11c1,0,1.91-.09,2.87-.15l.61,0c1-.07,2.11-.16,3.16-.25h0l3.27-.33c1-.11,2.06-.24,3.08-.38l.42-.05c1-.13,2-.28,3-.44s2.15-.34,3.22-.54c.89-.15,1.78-.32,2.66-.5,1.44-.28,2.87-.58,4.29-.91.83-.19,1.66-.38,2.49-.59s1.38-.34,2.07-.53c1-.25,2-.52,2.94-.8,2-.57,4-1.19,6-1.85s4.12-1.41,6.14-2.18l.47-.18c.71-.27,1.41-.54,2.11-.83s1.42-.57,2.13-.87,1.42-.6,2.13-.92,1.41-.61,2.1-.94,1.62-.74,2.42-1.13l.32-.15,2.07-1c.79-.39,1.58-.8,2.37-1.22s1.56-.82,2.34-1.25q2.33-1.26,4.61-2.63,4.56-2.7,8.91-5.73,1.08-.73,2.16-1.53c.71-.5,1.41-1,2.11-1.54l0,0c.71-.52,1.41-1.06,2.1-1.6s1.39-1.09,2.08-1.64q2.06-1.65,4-3.38l0,0,.09-.08c.88-.76,1.75-1.54,2.61-2.32l.07-.06c.83-.75,1.65-1.52,2.46-2.29a1.88,1.88,0,0,0,.25-.24c.65-.62,1.29-1.24,1.93-1.88.19-.17.37-.35.54-.53l.49-.49c.67-.68,1.33-1.36,2-2.05l.06-.06q1.21-1.28,2.4-2.58l0,0c.8-.87,1.58-1.75,2.35-2.64l.05-.06c.76-.88,1.52-1.77,2.26-2.67l.07-.09c.74-.89,1.46-1.79,2.18-2.7l.09-.12c.71-.9,1.4-1.81,2.09-2.73l.11-.15c.68-.9,1.34-1.82,2-2.74l.13-.19c.7-1,1.39-2,2.06-3s1.23-1.85,1.83-2.78l.26-.41c.62-1,1.22-1.94,1.81-2.93s1.25-2.08,1.85-3.13,1.06-1.88,1.58-2.83l.32-.6c.46-.86.92-1.72,1.36-2.59l.2-.4.15-.28c.27-.54.54-1.08.8-1.62S461.91,391.82,462.2,391.18Z" transform="translate(-160.97 -161.17)"/><path class="cls-1" d="M493,332.43c0,1.75,0,3.5-.09,5.26a170.11,170.11,0,0,1-33.8,95.39l-2.2-2.2A165,165,0,0,0,493,332.43Z" transform="translate(-160.97 -161.17)"/><path class="cls-1" d="M476,327.49a149.51,149.51,0,0,0-3.5-31.38H460.33v40.2H424.81V440.36l0,0V239.67H389.22v51.24H353.67v84.95H318.24V476.37c1.44.09,2.88.15,4.33.2a145.7,145.7,0,0,1-15.88-1.34q5.65.76,11.42,1.13v-134H282.56v32.14h-35v79.1l-1-.63h.93V304.33H212V422.08l-.29-.36V331.44H178.75c.89,34.21,12.73,65.54,32.92,90.28A149.13,149.13,0,1,1,462.2,391.18,149,149,0,0,0,476,327.49Z" transform="translate(-160.97 -161.17)"/><path class="cls-2" d="M472.5,296.11a150,150,0,0,1-10.3,95.07c-.3.64-.61,1.28-.92,1.92s-.53,1.08-.8,1.62l-.15.28V296.11Z" transform="translate(-160.97 -161.17)"/><path class="cls-1" d="M461.28,393.1c.31-.64.62-1.28.92-1.92C461.91,391.82,461.6,392.46,461.28,393.1Z" transform="translate(-160.97 -161.17)"/><path class="cls-1" d="M460.48,394.72c.27-.54.54-1.08.8-1.62C461,393.64,460.75,394.18,460.48,394.72Z" transform="translate(-160.97 -161.17)"/><path class="cls-3" d="M460.33,395l-.2.4c-.44.87-.9,1.73-1.36,2.59l-.32.6c-.52,1-1.05,1.89-1.58,2.83s-1.22,2.1-1.85,3.13-1.2,2-1.81,2.93l-.26.41c-.6.93-1.21,1.86-1.83,2.78s-1.36,2-2.06,3l-.13.19c-.66.92-1.33,1.84-2,2.74l-.11.15c-.69.92-1.38,1.83-2.09,2.73l-.09.12c-.72.91-1.44,1.81-2.18,2.7l-.07.09c-.74.9-1.49,1.79-2.26,2.67l-.05.06c-.77.89-1.55,1.77-2.35,2.64l0,0q-1.18,1.31-2.4,2.58l-.06.06c-.65.69-1.32,1.37-2,2.05l-.49.49-.54.53c-.63.64-1.28,1.26-1.93,1.88a1.88,1.88,0,0,1-.25.24c-.81.77-1.63,1.54-2.46,2.29l-.07.06c-.86.78-1.73,1.56-2.61,2.32l-.09.08v-104h35.52Z" transform="translate(-160.97 -161.17)"/><path class="cls-1" d="M458.77,398c.46-.86.92-1.72,1.36-2.59C459.69,396.27,459.23,397.13,458.77,398Z" transform="translate(-160.97 -161.17)"/><path class="cls-1" d="M456.94,430.88l2.2,2.2a170.5,170.5,0,0,1-23.52,25.64l-3.09-3.09Z" transform="translate(-160.97 -161.17)"/><path class="cls-1" d="M456.87,401.42c.53-.94,1.06-1.88,1.58-2.83C457.93,399.54,457.41,400.48,456.87,401.42Z" transform="translate(-160.97 -161.17)"/><polygon class="cls-1" points="295.97 269.71 271.56 294.46 271.22 294.12 295.58 269.32 295.97 269.71"/><path class="cls-1" d="M455,404.55c.63-1,1.25-2.08,1.85-3.13C456.27,402.47,455.65,403.52,455,404.55Z" transform="translate(-160.97 -161.17)"/><path class="cls-1" d="M453.21,407.48c.61-1,1.22-2,1.81-2.93C454.43,405.54,453.83,406.51,453.21,407.48Z" transform="translate(-160.97 -161.17)"/><path class="cls-1" d="M451.12,410.67c.62-.92,1.23-1.85,1.83-2.78C452.35,408.82,451.74,409.75,451.12,410.67Z" transform="translate(-160.97 -161.17)"/><path class="cls-1" d="M449.06,413.65c.7-1,1.38-2,2.06-3C450.45,411.67,449.76,412.66,449.06,413.65Z" transform="translate(-160.97 -161.17)"/><path class="cls-1" d="M446.93,416.58c.67-.9,1.34-1.82,2-2.74C448.27,414.76,447.61,415.68,446.93,416.58Z" transform="translate(-160.97 -161.17)"/><path class="cls-1" d="M444.73,419.46c.71-.9,1.4-1.81,2.09-2.73C446.13,417.65,445.44,418.56,444.73,419.46Z" transform="translate(-160.97 -161.17)"/><path class="cls-1" d="M442.46,422.28c.74-.89,1.46-1.79,2.18-2.7C443.92,420.49,443.2,421.39,442.46,422.28Z" transform="translate(-160.97 -161.17)"/><path class="cls-1" d="M440.13,425c.77-.88,1.52-1.77,2.26-2.67C441.65,423.27,440.89,424.16,440.13,425Z" transform="translate(-160.97 -161.17)"/><path class="cls-1" d="M437.73,427.74c.8-.87,1.58-1.75,2.35-2.64C439.31,426,438.53,426.87,437.73,427.74Z" transform="translate(-160.97 -161.17)"/><path class="cls-1" d="M435.3,430.36q1.21-1.28,2.4-2.58Q436.52,429.09,435.3,430.36Z" transform="translate(-160.97 -161.17)"/><polygon class="cls-1" points="274.65 297.55 270.03 301.5 271.56 294.46 274.65 297.55"/><path class="cls-1" d="M433.25,432.47c.67-.68,1.34-1.36,2-2.05C434.58,431.11,433.92,431.79,433.25,432.47Z" transform="translate(-160.97 -161.17)"/><path class="cls-1" d="M432.22,433.49l.54-.53C432.59,433.14,432.41,433.32,432.22,433.49Z" transform="translate(-160.97 -161.17)"/><path class="cls-1" d="M432.53,455.63l-1.53,7a160.14,160.14,0,0,1-102.74,36.85c-93.62,0-166.79-68.33-166.79-159.19q0-3.3.12-6.58A165.82,165.82,0,0,0,432.53,455.63Z" transform="translate(-160.97 -161.17)"/><path class="cls-1" d="M430.29,435.37c.65-.62,1.3-1.24,1.93-1.88C431.58,434.13,430.94,434.75,430.29,435.37Z" transform="translate(-160.97 -161.17)"/><path class="cls-1" d="M427.58,437.9c.83-.75,1.65-1.52,2.46-2.29C429.23,436.38,428.41,437.15,427.58,437.9Z" transform="translate(-160.97 -161.17)"/><path class="cls-1" d="M424.9,440.28c.88-.76,1.75-1.54,2.61-2.32C426.65,438.74,425.78,439.52,424.9,440.28Z" transform="translate(-160.97 -161.17)"/><path class="cls-4" d="M424.78,239.67V440.38q-2,1.72-4,3.38c-.69.55-1.38,1.1-2.08,1.64s-1.39,1.07-2.1,1.6l0,0-2.11,1.54q-1.07.78-2.16,1.53c-2.89,2-5.87,3.92-8.91,5.73-1.52.9-3.05,1.78-4.61,2.63l-2.34,1.25L394,460.92l-2.07,1-.32.15-2.42,1.13V239.67Z" transform="translate(-160.97 -161.17)"/><path class="cls-1" d="M418.65,445.4c.7-.54,1.39-1.09,2.08-1.64C420,444.31,419.35,444.86,418.65,445.4Z" transform="translate(-160.97 -161.17)"/><path class="cls-1" d="M416.55,447c.71-.53,1.41-1.06,2.1-1.6C418,445.94,417.26,446.48,416.55,447Z" transform="translate(-160.97 -161.17)"/><path class="cls-1" d="M414.42,448.56l2.11-1.54C415.83,447.54,415.13,448.06,414.42,448.56Z" transform="translate(-160.97 -161.17)"/><path class="cls-1" d="M412.26,450.09q1.1-.75,2.16-1.53Q413.34,449.35,412.26,450.09Z" transform="translate(-160.97 -161.17)"/><path class="cls-1" d="M403.35,455.82c3-1.81,6-3.72,8.91-5.73Q407.91,453.12,403.35,455.82Z" transform="translate(-160.97 -161.17)"/><path class="cls-1" d="M398.74,458.45c1.56-.85,3.09-1.73,4.61-2.63Q401.07,457.19,398.74,458.45Z" transform="translate(-160.97 -161.17)"/><path class="cls-1" d="M396.4,459.7l2.34-1.25C398,458.88,397.18,459.3,396.4,459.7Z" transform="translate(-160.97 -161.17)"/><path class="cls-1" d="M394,460.92l2.37-1.22C395.61,460.12,394.82,460.53,394,460.92Z" transform="translate(-160.97 -161.17)"/><path class="cls-1" d="M392,461.94l2.07-1Z" transform="translate(-160.97 -161.17)"/><path class="cls-1" d="M389.22,463.22l2.42-1.13C390.84,462.48,390,462.86,389.22,463.22Z" transform="translate(-160.97 -161.17)"/><path class="cls-2" d="M389.22,290.91V463.22l-2.1.94c-.71.32-1.42.62-2.13.92s-1.42.59-2.13.87-1.4.56-2.11.83l-.47.18q-3,1.16-6.14,2.18c-2,.66-4,1.27-6,1.85-1,.28-1.95.55-2.94.8l-2.07.53c-.83.21-1.66.4-2.49.59-1.42.32-2.85.63-4.29.91-.88.18-1.77.35-2.66.5V290.91Z" transform="translate(-160.97 -161.17)"/><path class="cls-1" d="M387.12,464.16l2.1-.94C388.53,463.55,387.82,463.86,387.12,464.16Z" transform="translate(-160.97 -161.17)"/><path class="cls-1" d="M382.86,466c.71-.28,1.42-.58,2.13-.87C384.28,465.38,383.58,465.67,382.86,466Z" transform="translate(-160.97 -161.17)"/><path class="cls-1" d="M380.75,466.78c.71-.27,1.41-.54,2.11-.83C382.16,466.24,381.46,466.51,380.75,466.78Z" transform="translate(-160.97 -161.17)"/><path class="cls-1" d="M374.14,469.14q3.11-1,6.14-2.18Q377.25,468.12,374.14,469.14Z" transform="translate(-160.97 -161.17)"/><path class="cls-1" d="M368.12,471c2-.58,4-1.19,6-1.85C372.15,469.8,370.15,470.42,368.12,471Z" transform="translate(-160.97 -161.17)"/><path class="cls-1" d="M363.11,472.32l2.07-.53C364.49,472,363.8,472.15,363.11,472.32Z" transform="translate(-160.97 -161.17)"/><path class="cls-1" d="M356.33,473.82c1.44-.28,2.87-.59,4.29-.91C359.2,473.24,357.77,473.54,356.33,473.82Z" transform="translate(-160.97 -161.17)"/><path class="cls-5" d="M353.67,375.86v98.46c-1.07.19-2.14.37-3.22.54s-2,.3-3,.44l-.42.05c-1,.14-2.05.27-3.08.38s-2.18.23-3.27.33h0l-3.16.25-.61,0c-.95.06-1.91.11-2.87.15-1.11.05-2.22.09-3.34.11s-2.24,0-3.37,0l-2.28,0c-.81,0-1.63,0-2.44-.06-1.45-.05-2.89-.11-4.33-.2V375.86Z" transform="translate(-160.97 -161.17)"/><path class="cls-1" d="M350.45,474.86c1.08-.17,2.15-.35,3.22-.54C352.6,474.52,351.53,474.7,350.45,474.86Z" transform="translate(-160.97 -161.17)"/><path class="cls-1" d="M347.43,475.3c1-.14,2-.28,3-.44C349.45,475,348.44,475.17,347.43,475.3Z" transform="translate(-160.97 -161.17)"/><path class="cls-1" d="M343.93,475.73c1-.11,2.06-.24,3.08-.38C346,475.49,345,475.62,343.93,475.73Z" transform="translate(-160.97 -161.17)"/><path class="cls-1" d="M340.66,476.06c1.09-.1,2.19-.21,3.27-.33Z" transform="translate(-160.97 -161.17)"/><path class="cls-1" d="M337.48,476.31l3.16-.25C339.59,476.15,338.53,476.24,337.48,476.31Z" transform="translate(-160.97 -161.17)"/><path class="cls-1" d="M334,476.5c1,0,1.92-.09,2.87-.15C335.91,476.41,335,476.46,334,476.5Z" transform="translate(-160.97 -161.17)"/><path class="cls-1" d="M330.66,476.61c1.12,0,2.23-.06,3.34-.11C332.89,476.55,331.78,476.59,330.66,476.61Z" transform="translate(-160.97 -161.17)"/><path class="cls-1" d="M327.29,476.65c1.13,0,2.25,0,3.37,0C329.54,476.64,328.42,476.65,327.29,476.65Z" transform="translate(-160.97 -161.17)"/><path class="cls-1" d="M325,476.63l2.28,0Z" transform="translate(-160.97 -161.17)"/><path class="cls-3" d="M318.11,342.33v134q-5.76-.36-11.42-1.13a150,150,0,0,1-15.53-3l-2.17-.56-2.16-.59c-1.43-.4-2.85-.83-4.27-1.27V342.33Z" transform="translate(-160.97 -161.17)"/><path class="cls-1" d="M291.16,472.24a150,150,0,0,0,15.53,3A144.85,144.85,0,0,1,291.16,472.24Z" transform="translate(-160.97 -161.17)"/><path class="cls-1" d="M289,471.68l2.17.56C290.44,472.07,289.71,471.88,289,471.68Z" transform="translate(-160.97 -161.17)"/><path class="cls-1" d="M286.83,471.09l2.16.59C288.27,471.5,287.54,471.3,286.83,471.09Z" transform="translate(-160.97 -161.17)"/><path class="cls-1" d="M282.56,469.82c1.42.44,2.84.87,4.27,1.27q-3.33-.93-6.59-2C281,469.32,281.78,469.58,282.56,469.82Z" transform="translate(-160.97 -161.17)"/><path class="cls-5" d="M282.56,374.47v95.35c-.78-.24-1.55-.5-2.32-.75a148.69,148.69,0,0,1-18-7.31l-2.16-1.07c-1.44-.73-2.86-1.47-4.26-2.24l-2.11-1.17-2.08-1.21-.16-.09-1.89-1.14-2-1.27v-79.1Z" transform="translate(-160.97 -161.17)"/><path class="cls-1" d="M262.26,461.76a148.69,148.69,0,0,0,18,7.31A144.59,144.59,0,0,1,262.26,461.76Z" transform="translate(-160.97 -161.17)"/><path class="cls-1" d="M264.19,174.1a146.64,146.64,0,0,1,59.24-12.39A165.15,165.15,0,0,0,264.19,174.1Z" transform="translate(-160.97 -161.17)"/><path class="cls-1" d="M260.1,460.69l2.16,1.07C261.54,461.42,260.82,461.06,260.1,460.69Z" transform="translate(-160.97 -161.17)"/><path class="cls-1" d="M255.84,458.45c1.4.77,2.82,1.51,4.26,2.24C258.67,460,257.25,459.23,255.84,458.45Z" transform="translate(-160.97 -161.17)"/><path class="cls-1" d="M253.73,457.28l2.11,1.17C255.13,458.07,254.43,457.68,253.73,457.28Z" transform="translate(-160.97 -161.17)"/><path class="cls-1" d="M251.65,456.07l2.08,1.21C253,456.89,252.34,456.48,251.65,456.07Z" transform="translate(-160.97 -161.17)"/><path class="cls-1" d="M249.6,454.84l1.89,1.14C250.86,455.61,250.22,455.23,249.6,454.84Z" transform="translate(-160.97 -161.17)"/><path class="cls-1" d="M247.56,453.57l2,1.27C248.91,454.43,248.24,454,247.56,453.57Z" transform="translate(-160.97 -161.17)"/><path class="cls-4" d="M247.51,304.33V452.94h-.93c-2.41-1.56-4.78-3.18-7.09-4.86l-.12-.09L237,446.25c-1.55-1.18-3.07-2.38-4.57-3.62-.75-.62-1.49-1.24-2.22-1.87q-3.31-2.83-6.46-5.87c-.69-.67-1.39-1.35-2.07-2L219.89,431l-.57-.6-1.63-1.74c-1.32-1.42-2.6-2.87-3.86-4.35-.63-.74-1.25-1.48-1.87-2.23V304.33Z" transform="translate(-160.97 -161.17)"/><path class="cls-1" d="M239.49,448.08c2.31,1.68,4.68,3.3,7.09,4.86C244.17,451.4,241.8,449.77,239.49,448.08Z" transform="translate(-160.97 -161.17)"/><path class="cls-1" d="M237,446.25l2.33,1.74C238.58,447.42,237.81,446.84,237,446.25Z" transform="translate(-160.97 -161.17)"/><path class="cls-1" d="M232.47,442.63c1.5,1.24,3,2.44,4.57,3.62Q234.72,444.5,232.47,442.63Z" transform="translate(-160.97 -161.17)"/><path class="cls-1" d="M230.25,440.76c.73.63,1.47,1.25,2.22,1.87C231.72,442,231,441.4,230.25,440.76Z" transform="translate(-160.97 -161.17)"/><path class="cls-1" d="M223.79,434.89q3.14,3,6.46,5.87Q226.94,437.93,223.79,434.89Z" transform="translate(-160.97 -161.17)"/><path class="cls-1" d="M221.72,432.85c.68.69,1.38,1.37,2.07,2C223.09,434.22,222.39,433.54,221.72,432.85Z" transform="translate(-160.97 -161.17)"/><path class="cls-1" d="M219.89,431l1.83,1.85C221.1,432.24,220.5,431.62,219.89,431Z" transform="translate(-160.97 -161.17)"/><path class="cls-1" d="M217.69,428.66l1.63,1.74Z" transform="translate(-160.97 -161.17)"/><path class="cls-1" d="M213.83,424.31c1.26,1.48,2.54,2.93,3.86,4.35Q215.71,426.53,213.83,424.31Z" transform="translate(-160.97 -161.17)"/><path class="cls-1" d="M212,422.08c.62.75,1.24,1.49,1.87,2.23C213.19,423.58,212.57,422.83,212,422.08Z" transform="translate(-160.97 -161.17)"/><path class="cls-3" d="M211.67,331.44v90.28c-20.19-24.74-32-56.07-32.92-90.28Z" transform="translate(-160.97 -161.17)"/><path class="cls-1" d="M161.47,327.49A165.86,165.86,0,0,1,264.1,174.14C204.22,200.45,164,265,161.59,333.75,161.51,331.67,161.47,329.59,161.47,327.49Z" transform="translate(-160.97 -161.17)"/><path class="cls-6" d="M161.59,333.75q-.12,3.28-.12,6.58c0,90.86,73.17,159.19,166.79,159.19A160.14,160.14,0,0,0,431,462.67" transform="translate(-160.97 -161.17)"/><path class="cls-6" d="M323.43,161.71a146.64,146.64,0,0,0-59.24,12.39" transform="translate(-160.97 -161.17)"/><path class="cls-6" d="M459.14,433.08a170.11,170.11,0,0,0,33.8-95.39c.06-1.76.09-3.51.09-5.26" transform="translate(-160.97 -161.17)"/><path class="cls-6" d="M456.94,430.88A165,165,0,0,0,493,332.43a.06.06,0,0,0,0-.06c.06-1.62.08-3.25.08-4.88A165.82,165.82,0,0,0,327.29,161.67c-1.26,0-2.52,0-3.77,0h-.09a165.15,165.15,0,0,0-59.24,12.39l-.09,0A165.86,165.86,0,0,0,161.47,327.49c0,2.1,0,4.18.12,6.26A165.82,165.82,0,0,0,432.53,455.63" transform="translate(-160.97 -161.17)"/><path class="cls-6" d="M178.75,331.44c.89,34.21,12.73,65.54,32.92,90.28V331.44Z" transform="translate(-160.97 -161.17)"/><path class="cls-6" d="M239.49,448.08c2.31,1.68,4.68,3.3,7.09,4.86h.93V304.33H212V422.08c.62.75,1.24,1.49,1.87,2.23,1.26,1.48,2.54,2.93,3.86,4.35l1.63,1.74" transform="translate(-160.97 -161.17)"/><path class="cls-6" d="M219.89,431l1.83,1.85c.68.69,1.38,1.37,2.07,2q3.14,3,6.46,5.87c.73.63,1.47,1.25,2.22,1.87,1.5,1.24,3,2.44,4.57,3.62l2.33,1.74" transform="translate(-160.97 -161.17)"/><path class="cls-6" d="M251.65,456.07l2.08,1.21,2.11,1.17c1.4.77,2.82,1.51,4.26,2.24l2.16,1.07a148.69,148.69,0,0,0,18,7.31c.77.25,1.54.51,2.32.75" transform="translate(-160.97 -161.17)"/><path class="cls-6" d="M282.56,374.47h-35v79.1l2,1.27,1.89,1.14" transform="translate(-160.97 -161.17)"/><path class="cls-6" d="M306.69,475.23q5.65.76,11.42,1.13v-134H282.56V469.82c1.42.44,2.84.87,4.27,1.27l2.16.59,2.17.56A150,150,0,0,0,306.69,475.23Z" transform="translate(-160.97 -161.17)"/><path class="cls-6" d="M347.43,475.3c1-.14,2-.28,3-.44s2.15-.35,3.22-.54" transform="translate(-160.97 -161.17)"/><path class="cls-6" d="M340.66,476.06c1.09-.1,2.19-.21,3.27-.33s2.06-.24,3.08-.38" transform="translate(-160.97 -161.17)"/><path class="cls-6" d="M337.48,476.31l3.16-.25" transform="translate(-160.97 -161.17)"/><path class="cls-6" d="M325,476.63l2.28,0c1.13,0,2.25,0,3.37,0s2.23-.06,3.34-.11c1,0,1.92-.09,2.87-.15" transform="translate(-160.97 -161.17)"/><path class="cls-6" d="M353.67,375.86H318.24V476.37c1.44.09,2.88.15,4.33.2" transform="translate(-160.97 -161.17)"/><path class="cls-6" d="M387.12,464.16l2.1-.94" transform="translate(-160.97 -161.17)"/><path class="cls-6" d="M380.75,466.78c.71-.27,1.41-.54,2.11-.83s1.42-.58,2.13-.87" transform="translate(-160.97 -161.17)"/><path class="cls-6" d="M368.12,471c2-.58,4-1.19,6-1.85s4.12-1.41,6.14-2.18" transform="translate(-160.97 -161.17)"/><path class="cls-6" d="M363.11,472.32l2.07-.53" transform="translate(-160.97 -161.17)"/><path class="cls-6" d="M356.33,473.82c1.44-.28,2.87-.59,4.29-.91" transform="translate(-160.97 -161.17)"/><polyline class="cls-6" points="228.25 129.74 192.7 129.74 192.7 214.69 192.7 313.15"/><path class="cls-6" d="M416.55,447c.71-.53,1.41-1.06,2.1-1.6s1.39-1.09,2.08-1.64" transform="translate(-160.97 -161.17)"/><path class="cls-6" d="M392,461.94l2.07-1,2.37-1.22,2.34-1.25c1.56-.85,3.09-1.73,4.61-2.63,3-1.81,6-3.72,8.91-5.73q1.1-.75,2.16-1.53l2.11-1.54" transform="translate(-160.97 -161.17)"/><path class="cls-6" d="M424.78,440.38V239.67H389.22V463.22l2.42-1.13" transform="translate(-160.97 -161.17)"/><path class="cls-6" d="M458.77,398c.46-.86.92-1.72,1.36-2.59" transform="translate(-160.97 -161.17)"/><path class="cls-6" d="M453.21,407.48c.61-1,1.22-2,1.81-2.93s1.25-2.08,1.85-3.13,1.06-1.88,1.58-2.83" transform="translate(-160.97 -161.17)"/><path class="cls-6" d="M449.06,413.65c.7-1,1.38-2,2.06-3s1.23-1.85,1.83-2.78" transform="translate(-160.97 -161.17)"/><path class="cls-6" d="M446.93,416.58c.67-.9,1.34-1.82,2-2.74" transform="translate(-160.97 -161.17)"/><path class="cls-6" d="M444.73,419.46c.71-.9,1.4-1.81,2.09-2.73" transform="translate(-160.97 -161.17)"/><path class="cls-6" d="M442.46,422.28c.74-.89,1.46-1.79,2.18-2.7" transform="translate(-160.97 -161.17)"/><path class="cls-6" d="M440.13,425c.77-.88,1.52-1.77,2.26-2.67" transform="translate(-160.97 -161.17)"/><path class="cls-6" d="M437.73,427.74c.8-.87,1.58-1.75,2.35-2.64" transform="translate(-160.97 -161.17)"/><path class="cls-6" d="M435.3,430.36q1.21-1.28,2.4-2.58" transform="translate(-160.97 -161.17)"/><path class="cls-6" d="M433.25,432.47c.67-.68,1.34-1.36,2-2.05" transform="translate(-160.97 -161.17)"/><path class="cls-6" d="M430.29,435.37c.65-.62,1.3-1.24,1.93-1.88.19-.17.37-.35.54-.53" transform="translate(-160.97 -161.17)"/><path class="cls-6" d="M427.58,437.9c.83-.75,1.65-1.52,2.46-2.29" transform="translate(-160.97 -161.17)"/><path class="cls-6" d="M424.9,440.28c.88-.76,1.75-1.54,2.61-2.32" transform="translate(-160.97 -161.17)"/><polyline class="cls-6" points="299.36 175.14 263.84 175.14 263.84 279.19"/><path class="cls-6" d="M460.48,394.72c.27-.54.54-1.08.8-1.62s.62-1.28.92-1.92a150,150,0,0,0,10.3-95.07H460.33V395" transform="translate(-160.97 -161.17)"/><path class="cls-6" d="M462.2,391.18a149.18,149.18,0,1,0-250.53,30.54l.29.36c.61.75,1.23,1.5,1.87,2.23q1.88,2.22,3.86,4.35l1.63,1.74.57.6c.61.62,1.21,1.24,1.83,1.85s1.37,1.37,2.07,2q3.14,3,6.46,5.87c.73.64,1.47,1.26,2.22,1.87q2.25,1.86,4.57,3.62c.77.59,1.54,1.17,2.33,1.74l.12.09c2.31,1.69,4.68,3.32,7.09,4.86l1,.63c.68.44,1.35.86,2,1.27s1.26.77,1.89,1.14l.16.09c.69.41,1.38.82,2.08,1.21s1.4.79,2.11,1.17c1.41.78,2.83,1.52,4.26,2.24.72.37,1.44.73,2.16,1.07a144.59,144.59,0,0,0,18,7.31q3.25,1.1,6.59,2c.71.21,1.44.41,2.16.59s1.45.39,2.17.56a149.81,149.81,0,0,0,31.41,4.33c.81,0,1.63.05,2.44.06l2.28,0c1.13,0,2.25,0,3.37,0s2.23-.06,3.34-.11c1,0,1.91-.09,2.87-.15l.61,0c1-.07,2.11-.16,3.16-.25h0l3.27-.33c1-.11,2.06-.24,3.08-.38l.42-.05c1-.13,2-.28,3-.44s2.15-.34,3.22-.54c.89-.15,1.78-.32,2.66-.5,1.44-.28,2.87-.58,4.29-.91.83-.19,1.66-.38,2.49-.59s1.38-.34,2.07-.53c1-.25,2-.52,2.94-.8,2-.57,4-1.19,6-1.85s4.12-1.41,6.14-2.18l.47-.18c.71-.27,1.41-.54,2.11-.83s1.42-.57,2.13-.87,1.42-.6,2.13-.92,1.41-.61,2.1-.94,1.62-.74,2.42-1.13l.32-.15,2.07-1c.79-.39,1.58-.8,2.37-1.22s1.56-.82,2.34-1.25q2.33-1.26,4.61-2.63,4.56-2.7,8.91-5.73,1.08-.73,2.16-1.53c.71-.5,1.41-1,2.11-1.54l0,0c.71-.52,1.41-1.06,2.1-1.6s1.39-1.09,2.08-1.64q2.06-1.65,4-3.38l0,0,.09-.08c.88-.76,1.75-1.54,2.61-2.32l.07-.06c.83-.75,1.65-1.52,2.46-2.29a1.88,1.88,0,0,0,.25-.24c.65-.62,1.29-1.24,1.93-1.88l.54-.53.49-.49c.67-.68,1.33-1.36,2-2.05l.06-.06q1.21-1.28,2.4-2.58l0,0c.8-.87,1.58-1.75,2.35-2.64l.05-.06c.76-.88,1.52-1.77,2.26-2.67l.07-.09c.74-.89,1.46-1.79,2.18-2.7l.09-.12c.71-.9,1.4-1.81,2.09-2.73l.11-.15c.68-.9,1.34-1.82,2-2.74l.13-.19c.7-1,1.39-2,2.06-3s1.23-1.85,1.83-2.78l.26-.41c.62-1,1.22-1.94,1.81-2.93s1.25-2.08,1.85-3.13,1.06-1.88,1.58-2.83l.32-.6c.46-.86.92-1.72,1.36-2.59l.2-.4.15-.28c.27-.54.54-1.08.8-1.62S461.91,391.82,462.2,391.18Z" transform="translate(-160.97 -161.17)"/><path class="cls-6" d="M606.62,629.72l1.19,9.67v0s0,0,.06,0L631.2,616.1v-11" transform="translate(-160.97 -161.17)"/><path class="cls-6" d="M432.19,455.29l.34.34,3.09,3.09,171,171,24.56-24.56a0,0,0,0,0,0,0l-172-172-2.2-2.2-.39-.39" transform="translate(-160.97 -161.17)"/><polyline class="cls-6" points="271.56 294.46 270.03 301.5 446.82 478.28 446.85 478.31"/><text class="cls-7" transform="matrix(0.6, -0.8, 0.8, 0.6, 77.17, 100.97)">C</text><text class="cls-7" transform="matrix(0.68, -0.73, 0.73, 0.68, 85.42, 89.83)">D</text><text class="cls-7" transform="translate(94.79 79.65) rotate(-40.88)">C</text><text class="cls-7" transform="translate(105.21 70.58) rotate(-34.19)"> </text><text class="cls-7" transform="matrix(0.89, -0.46, 0.46, 0.89, 116.63, 62.79)">2</text><text class="cls-7" transform="translate(128.87 56.44) rotate(-20.34)">0</text><text class="cls-7" transform="matrix(0.97, -0.23, 0.23, 0.97, 141.82, 51.62)">2</text><text class="cls-7" transform="translate(155.26 48.36) rotate(-7.21)">1</text></svg>